<?xml version="1.0" encoding="utf-8"?>
<!-- Generator: Adobe Illustrator 16.0.3, SVG Export Plug-In . SVG Version: 6.00 Build 0)  -->
<!DOCTYPE svg PUBLIC "-//W3C//DTD SVG 1.1//EN" "http://www.w3.org/Graphics/SVG/1.1/DTD/svg11.dtd">
<svg version="1.1" id="Warstwa_1" xmlns="http://www.w3.org/2000/svg" xmlns:xlink="http://www.w3.org/1999/xlink" x="0px" y="0px"
	 width="41.833px" height="17.667px" viewBox="0 0 41.833 17.667" enable-background="new 0 0 41.833 17.667" xml:space="preserve">
<g id="miu">
	<g id="Artboard-1" transform="translate(-576.000000, -407.000000)">
		<g id="slice_7_" transform="translate(215.000000, 119.000000)">
		</g>
		<path id="editor-zoom-in-plus-add-outline-stroke" fill="#010101" d="M583.07,414.269v-2.005h0.668v2.005h2.005v0.668h-2.005
			v2.004h-0.668v-2.004h-2.004v-0.668H583.07z M586.649,419.265c-0.92,0.642-2.039,1.017-3.244,1.017c-3.137,0-5.68-2.543-5.68-5.68
			s2.543-5.68,5.68-5.68c3.137,0,5.679,2.543,5.679,5.68c0,1.448-0.542,2.771-1.434,3.773l4.239,4.239
			c0.036,0.037,0.04,0.102,0.002,0.139l-0.81,0.809c-0.036,0.037-0.099,0.036-0.138-0.002L586.649,419.265L586.649,419.265z
			 M583.405,419.614c2.768,0,5.011-2.243,5.011-5.012c0-2.768-2.244-5.012-5.011-5.012c-2.769,0-5.012,2.244-5.012,5.012
			C578.393,417.372,580.636,419.614,583.405,419.614z"/>
	</g>
</g>
<g>
	<path fill="#010101" d="M17.469,10.737V9.833l2.606-3.22h-2.312v-0.84h3.632v0.779L18.677,9.9H21.5v0.836L17.469,10.737
		L17.469,10.737z"/>
	<path fill="#010101" d="M22.38,8.288c0-0.507,0.076-0.931,0.227-1.272c0.113-0.253,0.268-0.479,0.463-0.681
		c0.195-0.201,0.408-0.351,0.642-0.447c0.31-0.131,0.666-0.196,1.07-0.196c0.729,0,1.315,0.228,1.755,0.681
		c0.439,0.454,0.658,1.084,0.658,1.893c0,0.801-0.219,1.428-0.653,1.88s-1.019,0.679-1.746,0.679c-0.737,0-1.325-0.225-1.761-0.675
		S22.38,9.078,22.38,8.288z M23.412,8.252c0,0.562,0.13,0.987,0.39,1.277s0.59,0.436,0.988,0.436s0.727-0.145,0.982-0.432
		c0.258-0.288,0.385-0.72,0.385-1.295c0-0.568-0.124-0.992-0.374-1.272c-0.249-0.279-0.58-0.419-0.993-0.419
		s-0.745,0.142-0.998,0.425C23.538,7.254,23.412,7.682,23.412,8.252z"/>
	<path fill="#010101" d="M28.224,8.288c0-0.507,0.075-0.931,0.228-1.272c0.112-0.253,0.267-0.479,0.462-0.681
		s0.408-0.351,0.643-0.447c0.309-0.131,0.666-0.196,1.068-0.196c0.73,0,1.314,0.228,1.755,0.681
		c0.438,0.454,0.658,1.084,0.658,1.893c0,0.801-0.218,1.428-0.653,1.88s-1.018,0.679-1.746,0.679c-0.738,0-1.324-0.225-1.761-0.675
		C28.44,9.696,28.224,9.078,28.224,8.288z M29.256,8.252c0,0.562,0.129,0.987,0.39,1.277c0.26,0.29,0.588,0.436,0.987,0.436
		s0.728-0.145,0.983-0.432c0.257-0.288,0.385-0.72,0.385-1.295c0-0.568-0.125-0.992-0.374-1.272
		c-0.25-0.279-0.581-0.419-0.994-0.419s-0.745,0.142-0.998,0.425C29.382,7.254,29.256,7.682,29.256,8.252z"/>
	<path fill="#010101" d="M34.255,10.737V5.775h1.5l0.9,3.386l0.89-3.386h1.503v4.962h-0.931V6.832l-0.985,3.905h-0.965l-0.98-3.905
		v3.905H34.255z"/>
</g>
</svg>
